<svg xmlns="http://www.w3.org/2000/svg" enable-background="new 0 0 512 512" viewBox="0 0 512 512" id="hail"><path fill="#e7e6e5" d="M485.646,264.877c-24.024,23.604-59.854,28.191-88.318,16.596
			c-1.503-0.612-2.508-0.479-3.805,0.558c-31.432,25.01-69.348,29.139-104.538,14.033c-1.66-0.715-2.721-0.503-4.035,0.661
			c-17.826,15.675-38.572,24.37-62.306,25.721c-31.246,1.776-59.573-10.873-76.084-27.533c-1.297-1.315-2.599-1.23-4.139-0.787
			C66.592,316.009-3.793,248.365,0.159,189.284C0.689,123.09,46.587,79.659,102.116,73.791c6.847-0.721,13.699-0.86,20.534,0.03
			c3,0.388,4.442-0.619,5.514-3.581c16.738-46.484,59.819-71.452,100.593-70.195c47.19,1.457,83.664,32.572,96.001,68.953
			c1.006,2.975,2.393,3.726,5.544,3.265c36.637-5.354,69.251,14.116,82.713,46.388c1.109,2.654,2.29,3.593,5.356,3.193
			c18.675-2.454,36.282,1.224,52.4,10.773C515.557,159.14,528.762,222.519,485.646,264.877z"></path><path fill="#94d8f2" d="M106.382 369.647c0 11.167-9.041 20.208-20.208 20.208-11.22 0-20.262-9.041-20.262-20.208 0-11.22 20.208-40.742 20.208-40.742S106.382 358.425 106.382 369.647zM315.083 377.656c0 11.167-9.041 20.208-20.208 20.208-11.22 0-20.262-9.041-20.262-20.208 0-11.22 20.208-40.742 20.208-40.742S315.083 366.436 315.083 377.656zM468.908 458.594c0 11.167-9.041 20.208-20.208 20.208-11.22 0-20.262-9.041-20.262-20.208 0-11.22 20.208-40.742 20.208-40.742S468.908 447.374 468.908 458.594z"></path><circle cx="172.542" cy="380.64" r="23.531" fill="#d1dee7"></circle><circle cx="207.563" cy="471.406" r="23.531" fill="#d1dee7"></circle><circle cx="73.604" cy="488.47" r="23.531" fill="#d1dee7" transform="rotate(-88.092 73.614 488.497)"></circle><circle cx="338.613" cy="478.802" r="23.531" fill="#d1dee7"></circle><circle cx="394.794" cy="359.379" r="19.124" fill="#d1dee7"></circle></svg>