<svg xmlns="http://www.w3.org/2000/svg" width="655.359" height="655.359" fill-rule="evenodd" clip-rule="evenodd" image-rendering="optimizeQuality" shape-rendering="geometricPrecision" text-rendering="geometricPrecision" viewBox="0 0 6.827 6.827" id="sunny"><path fill="#d68735" d="m4.383 1.257.06.38h-.121zM4.74 1.304l-.04.382-.116-.031zM5.073 1.442l-.138.359-.104-.061zM5.359 1.661l-.226.311-.085-.085zM5.578 1.947l-.298.242-.061-.104zM5.716 2.28l-.351.157-.031-.117zM5.763 2.637l-.379.061v-.121zM5.716 2.995l-.382-.04.031-.117zM5.578 3.328l-.359-.138.061-.105zM5.359 3.614l-.311-.226.085-.086zM5.073 3.833l-.242-.299.104-.06zM4.74 3.971l-.156-.351.116-.032zM4.383 4.018l-.061-.38h.121zM4.025 3.971l.041-.383.116.032zM3.692 3.833l.138-.359.105.06zM3.407 3.614l.225-.312.086.086zM3.187 3.328l.299-.243.06.105zM3.049 2.995l.351-.157.032.117zM3.002 2.637l.38-.06v.121zM3.049 2.28l.383.04-.032.117zM3.187 1.947l.359.138-.06.104zM3.407 1.661l.311.226-.086.085zM3.692 1.442l.243.298-.105.061zM4.025 1.304l.157.351-.116.031z"></path><path fill="#eb9439" d="M3.64 1.894a1.048 1.048 0 0 1 1.486 0 1.048 1.048 0 0 1 0 1.486 1.048 1.048 0 0 1-1.486 0 1.048 1.048 0 0 1 0-1.486z"></path><path fill="#6f7d85" d="M1.577 3.266a.112.112 0 0 0 .006-.012.698.698 0 0 1 .165-.75.721.721 0 0 1 .958-.05.69.69 0 0 1 .252.4.35.35 0 0 1 .29-.11.386.386 0 0 1 .297.196c.051.094.055.2.01.298v.002c.14.008.27.068.368.169a.536.536 0 0 1-.011.755.552.552 0 0 1-.389.16h-2.12a.552.552 0 0 1-.389-.16.537.537 0 0 1 0-.766.552.552 0 0 1 .484-.15l.025.003a.339.339 0 0 1 .054.015z"></path><path fill="#78909c" d="M2.953 3.693a.7.7 0 0 0 0 .018.64.64 0 0 0 .137 1.265h2.244a.638.638 0 0 0 .482-1.061.64.64 0 0 0-.347-.204.818.818 0 0 0-1.017-.462.82.82 0 0 0-.684-.371.813.813 0 0 0-.815.815z"></path><path fill="none" d="M0 0h6.827v6.827H0z"></path></svg>