<svg xmlns="http://www.w3.org/2000/svg" width="655.359" height="655.359" fill-rule="evenodd" clip-rule="evenodd" image-rendering="optimizeQuality" shape-rendering="geometricPrecision" text-rendering="geometricPrecision" viewBox="0 0 6.827 6.827" id="rain"><path fill="#78909c" d="M1.583 2.28v.026a.93.93 0 0 0 .2 1.838h3.26a.927.927 0 0 0 .93-.93.926.926 0 0 0-.733-.908 1.19 1.19 0 0 0-1.479-.671 1.19 1.19 0 0 0-.993-.54A1.181 1.181 0 0 0 1.583 2.28z"></path><path fill="#1e88e5" d="M2.5 4.432c-.057.108-.228.428 0 .455h.005c.222-.03.053-.348-.004-.455zm1.217 0c-.057.108-.228.428 0 .455h.005c.222-.03.053-.348-.005-.455zm1.217 0c-.057.108-.228.428 0 .455h.004c.223-.03.053-.348-.004-.455zm-1.818.844c-.058.108-.229.428 0 .455h.004c.222-.03.053-.348-.004-.455zm1.203 0c-.057.108-.228.428 0 .455h.005c.222-.03.053-.348-.005-.455zm-2.426-.844c-.058.108-.229.428 0 .455h.004c.222-.03.053-.348-.004-.455zm1.216 0c-.057.108-.228.428 0 .455h.004c.223-.03.053-.348-.004-.455zm1.217 0c-.058.108-.229.428 0 .455h.004c.222-.03.053-.348-.004-.455zm-1.812.844c-.058.108-.229.428 0 .455h.004c.222-.03.053-.348-.004-.455zm1.204 0c-.058.108-.229.428 0 .455h.004c.222-.03.053-.348-.004-.455z"></path><path fill="none" d="M0 0h6.827v6.827H0z"></path></svg>