<svg xmlns="http://www.w3.org/2000/svg" width="96" height="96" fill="none" id="snowflake"><path fill="#75C4FE" fill-rule="evenodd" d="M83.311 59.966a1.5 1.5 0 0 1-1.189 1.757l-6.761 1.304 1.62 6.046a1.5 1.5 0 0 1-2.898.776l-2.037-7.602a1.5 1.5 0 0 1 1.165-1.86l8.343-1.61a1.5 1.5 0 0 1 1.757 1.19zM23.412 31.72a1.5 1.5 0 0 1-.876 1.775l-6.49 2.679a1.5 1.5 0 0 1-1.145-2.773l5.273-2.177-1.54-5.745a1.5 1.5 0 0 1 2.898-.776l1.88 7.017zm53.227-8.097a1.5 1.5 0 0 1 .92 1.911l-2.276 6.5 6.04 1.642a1.5 1.5 0 1 1-.787 2.895l-7.595-2.066a1.5 1.5 0 0 1-1.022-1.943l2.809-8.02a1.5 1.5 0 0 1 1.911-.92zM22.087 61.169a1.5 1.5 0 0 1 1.092 1.65l-.95 6.957a1.5 1.5 0 0 1-2.973-.406l.773-5.652-5.74-1.56a1.5 1.5 0 1 1 .788-2.895l7.01 1.906zm19.515-50.022a1.5 1.5 0 0 1 2.116.151l4.51 5.204 4.426-4.426a1.5 1.5 0 1 1 2.121 2.122l-5.565 5.565a1.5 1.5 0 0 1-2.194-.079l-5.565-6.42a1.5 1.5 0 0 1 .15-2.117zm5.487 65.997a1.5 1.5 0 0 1 1.975-.128l5.565 4.281a1.5 1.5 0 1 1-1.83 2.378l-4.52-3.478-4.206 4.206a1.5 1.5 0 1 1-2.121-2.122l5.137-5.137z" clip-rule="evenodd"></path><path fill="#43AEFC" fill-rule="evenodd" d="M84.495 68.21a2 2 0 0 1-2.732.732L13.178 29.345a2 2 0 1 1 2-3.464l68.585 39.597a2 2 0 0 1 .732 2.732Z" clip-rule="evenodd"></path><path fill="#43AEFC" fill-rule="evenodd" d="M81.05 53.109a2 2 0 0 1-1.24 2.542L69 59.37l1.344 11.146a2 2 0 0 1-3.972.478l-1.536-12.75a2 2 0 0 1 1.335-2.13l12.337-4.246a2 2 0 0 1 2.542 1.24zM32.1 36.535a2 2 0 0 1-1.209 2.126l-10.426 4.36a2 2 0 1 1-1.543-3.69l9.001-3.765-1.534-10.85a2 2 0 1 1 3.96-.56l1.751 12.38zm52.26-9.788a2 2 0 0 1-.743 2.729L14.885 68.817a2 2 0 0 1-1.987-3.471L81.63 26.004a2 2 0 0 1 2.73.742z" clip-rule="evenodd"></path><path fill="#43AEFC" fill-rule="evenodd" d="M69.577 22.124a2 2 0 0 1 1.572 2.351l-2.225 11.213 10.308 4.449a2 2 0 1 1-1.585 3.672l-11.791-5.088a2 2 0 0 1-1.17-2.226l2.54-12.798a2 2 0 0 1 2.35-1.573zM30.622 56.085A2 2 0 0 1 31.85 58.2l-1.478 11.204a2 2 0 1 1-3.966-.523l1.277-9.673-10.149-4.135a2 2 0 0 1 1.51-3.704l11.578 4.717zM48.149 6a2 2 0 0 1 2 2v79.195a2 2 0 1 1-4 0V8a2 2 0 0 1 2-2z" clip-rule="evenodd"></path><path fill="#43AEFC" fill-rule="evenodd" d="M36.794 16.534a2 2 0 0 1 2.822-.197l8.626 7.5 8.981-6.735a2 2 0 0 1 2.4 3.2L49.35 28.008a2 2 0 0 1-2.512-.091l-9.846-8.562a2 2 0 0 1-.197-2.821zm10.123 50.678a2 2 0 0 1 2.444-.016l8.99 6.85a2 2 0 0 1-2.424 3.181l-7.761-5.913-8.63 6.754a2 2 0 1 1-2.465-3.15l9.846-7.706z" clip-rule="evenodd"></path><path fill="#43AEFC" fill-rule="evenodd" d="M36.39 27.706a2 2 0 0 1 1.8-.159l10.057 4.023 10.892-3.227a2 2 0 0 1 2.539 1.575l1.598 9.19 7.222 6.821a2 2 0 0 1-.04 2.945l-7.675 6.868-2.848 11.39a2 2 0 0 1-2.737 1.35L48.042 64.5l-9.985 3.195a2 2 0 0 1-2.604-1.752l-.779-10.123-9.417-5.885a2 2 0 0 1-.14-3.296l9.55-7.162.786-10.227a2 2 0 0 1 .937-1.545Zm2.843 4.566-.648 8.416a2 2 0 0 1-.794 1.446l-7.94 5.956 7.8 4.875a2 2 0 0 1 .934 1.542l.662 8.608 8.293-2.654a2 2 0 0 1 1.407.071l7.68 3.34 2.424-9.696a2 2 0 0 1 .607-1.006l6.512-5.826-6.123-5.784a2 2 0 0 1-.598-1.111l-1.327-7.633-9.405 2.786a2 2 0 0 1-1.31-.06l-8.174-3.27Z" clip-rule="evenodd"></path><path fill="#75C4FE" fill-rule="evenodd" d="M48.114 32.185a1.5 1.5 0 0 1 1.361.798l3.383 6.39 7.992-.76a1.5 1.5 0 0 1 1.453 2.221l-3.837 6.906 3.774 5.66a1.5 1.5 0 0 1-1.248 2.333h-8.04l-3.447 7.275a1.5 1.5 0 0 1-2.713-.003l-3.067-6.518-6.871-.764a1.5 1.5 0 0 1-1.083-2.322l3.726-5.59-4.582-6.873a1.5 1.5 0 0 1 1.397-2.325l7.507.751 2.973-6.318a1.5 1.5 0 0 1 1.322-.86Zm.114 4.855-2.146 4.56a1.5 1.5 0 0 1-1.507.855l-5.404-.54 3.377 5.064a1.5 1.5 0 0 1 0 1.665l-2.913 4.37 5.255.584a1.5 1.5 0 0 1 1.192.852l2.072 4.403 2.492-5.263a1.5 1.5 0 0 1 1.356-.857h6.187l-2.726-4.09a1.5 1.5 0 0 1-.063-1.56l2.896-5.213-6.152.585a1.5 1.5 0 0 1-1.468-.791l-2.448-4.624Z" clip-rule="evenodd"></path></svg>