<svg xmlns="http://www.w3.org/2000/svg" viewBox="0 0 48 48" id="thunderstorm"><polygon fill="#fae380" points="34.59 36.52 30.9 36.52 33.42 33.15 27.53 33.15 23.42 40.35 26.94 40.35 24.66 45.96 34.59 36.52"></polygon><polygon fill="#fae380" points="24.59 36.52 20.89 36.52 23.42 33.15 17.53 33.15 13.42 40.35 16.94 40.35 14.65 45.96 24.59 36.52"></polygon><path fill="#b1d8fa" d="M33.24,10.67a9.26,9.26,0,0,0-18.48,0,9.27,9.27,0,0,0,.62,18.51H32.62a9.27,9.27,0,0,0,.62-18.51Z"></path><path fill="#99c3dd" d="M33 9a9.26 9.26 0 0 0-16.5 5.13 9.26 9.26 0 0 0-8.64 9.24 9.55 9.55 0 0 0 .29 2.34 9.26 9.26 0 0 1 6.64-15A9.27 9.27 0 0 1 33 9zM32.62 25.94V24.67c.2 0 4.76-.06 4.76-3.68h1.27C38.65 24.91 34.71 25.94 32.62 25.94z"></path></svg>